<svg width="24" height="24" viewBox="0 0 24 24" fill="none" xmlns="http://www.w3.org/2000/svg">
<path d="M10 19L5.45 21.275C5.11667 21.4417 4.79167 21.4292 4.475 21.2375C4.15833 21.0458 4 20.7583 4 20.375V8C4 7.45 4.19583 6.97917 4.5875 6.5875C4.97917 6.19583 5.45 6 6 6H14C14.55 6 15.0208 6.19583 15.4125 6.5875C15.8042 6.97917 16 7.45 16 8V20.375C16 20.7583 15.8417 21.0458 15.525 21.2375C15.2083 21.4292 14.8833 21.4417 14.55 21.275L10 19ZM6 18.975L9.05 17.325C9.35 17.1583 9.66667 17.075 10 17.075C10.3333 17.075 10.65 17.1583 10.95 17.325L14 18.975V8H6V18.975ZM19 18C18.7167 18 18.4792 17.9042 18.2875 17.7125C18.0958 17.5208 18 17.2833 18 17V4H8C7.71667 4 7.47917 3.90417 7.2875 3.7125C7.09583 3.52083 7 3.28333 7 3C7 2.71667 7.09583 2.47917 7.2875 2.2875C7.47917 2.09583 7.71667 2 8 2H18C18.55 2 19.0208 2.19583 19.4125 2.5875C19.8042 2.97917 20 3.45 20 4V17C20 17.2833 19.9042 17.5208 19.7125 17.7125C19.5208 17.9042 19.2833 18 19 18Z" fill="#76869A"/>
</svg>
