<svg width="17" height="20" viewBox="0 0 17 20" fill="none" xmlns="http://www.w3.org/2000/svg">
<path d="M2.625 20C2.075 20 1.60417 19.8042 1.2125 19.4125C0.820833 19.0208 0.625 18.55 0.625 18V2C0.625 1.45 0.820833 0.979167 1.2125 0.5875C1.60417 0.195833 2.075 0 2.625 0H14.625C15.175 0 15.6458 0.195833 16.0375 0.5875C16.4292 0.979167 16.625 1.45 16.625 2V18C16.625 18.55 16.4292 19.0208 16.0375 19.4125C15.6458 19.8042 15.175 20 14.625 20H2.625ZM2.625 18H14.625V2H12.625V9L10.125 7.5L7.625 9V2H2.625V18Z" fill="#76869A"/>
</svg>
