<svg width="17" height="16" viewBox="0 0 17 16" fill="none" xmlns="http://www.w3.org/2000/svg">
<path d="M9.76389 4.44444V0.888889C9.76389 0.637037 9.84907 0.425926 10.0194 0.255556C10.1898 0.0851852 10.4009 0 10.6528 0H15.9861C16.238 0 16.4491 0.0851852 16.6194 0.255556C16.7898 0.425926 16.875 0.637037 16.875 0.888889V4.44444C16.875 4.6963 16.7898 4.90741 16.6194 5.07778C16.4491 5.24815 16.238 5.33333 15.9861 5.33333H10.6528C10.4009 5.33333 10.1898 5.24815 10.0194 5.07778C9.84907 4.90741 9.76389 4.6963 9.76389 4.44444ZM0.875 8V0.888889C0.875 0.637037 0.960185 0.425926 1.13056 0.255556C1.30093 0.0851852 1.51204 0 1.76389 0H7.09722C7.34907 0 7.56019 0.0851852 7.73056 0.255556C7.90093 0.425926 7.98611 0.637037 7.98611 0.888889V8C7.98611 8.25185 7.90093 8.46296 7.73056 8.63333C7.56019 8.8037 7.34907 8.88889 7.09722 8.88889H1.76389C1.51204 8.88889 1.30093 8.8037 1.13056 8.63333C0.960185 8.46296 0.875 8.25185 0.875 8ZM9.76389 15.1111V8C9.76389 7.74815 9.84907 7.53704 10.0194 7.36667C10.1898 7.1963 10.4009 7.11111 10.6528 7.11111H15.9861C16.238 7.11111 16.4491 7.1963 16.6194 7.36667C16.7898 7.53704 16.875 7.74815 16.875 8V15.1111C16.875 15.363 16.7898 15.5741 16.6194 15.7444C16.4491 15.9148 16.238 16 15.9861 16H10.6528C10.4009 16 10.1898 15.9148 10.0194 15.7444C9.84907 15.5741 9.76389 15.363 9.76389 15.1111ZM0.875 15.1111V11.5556C0.875 11.3037 0.960185 11.0926 1.13056 10.9222C1.30093 10.7519 1.51204 10.6667 1.76389 10.6667H7.09722C7.34907 10.6667 7.56019 10.7519 7.73056 10.9222C7.90093 11.0926 7.98611 11.3037 7.98611 11.5556V15.1111C7.98611 15.363 7.90093 15.5741 7.73056 15.7444C7.56019 15.9148 7.34907 16 7.09722 16H1.76389C1.51204 16 1.30093 15.9148 1.13056 15.7444C0.960185 15.5741 0.875 15.363 0.875 15.1111ZM2.65278 7.11111H6.20833V1.77778H2.65278V7.11111ZM11.5417 14.2222H15.0972V8.88889H11.5417V14.2222ZM11.5417 3.55556H15.0972V1.77778H11.5417V3.55556ZM2.65278 14.2222H6.20833V12.4444H2.65278V14.2222Z" fill="#76869A"/>
</svg>
