<svg width="25" height="24" viewBox="0 0 25 24" fill="none" xmlns="http://www.w3.org/2000/svg">
<path d="M14.6 20.775L9.25 18.9L4.6 20.7C4.43333 20.7667 4.27083 20.7875 4.1125 20.7625C3.95417 20.7375 3.80833 20.6833 3.675 20.6C3.54167 20.5167 3.4375 20.4042 3.3625 20.2625C3.2875 20.1208 3.25 19.9583 3.25 19.775V5.75C3.25 5.53333 3.3125 5.34167 3.4375 5.175C3.5625 5.00833 3.73333 4.88333 3.95 4.8L8.6 3.225C8.7 3.19167 8.80417 3.16667 8.9125 3.15C9.02083 3.13333 9.13333 3.125 9.25 3.125C9.36667 3.125 9.47917 3.13333 9.5875 3.15C9.69583 3.16667 9.8 3.19167 9.9 3.225L15.25 5.1L19.9 3.3C20.0667 3.23333 20.2292 3.2125 20.3875 3.2375C20.5458 3.2625 20.6917 3.31667 20.825 3.4C20.9583 3.48333 21.0625 3.59583 21.1375 3.7375C21.2125 3.87917 21.25 4.04167 21.25 4.225V18.25C21.25 18.4667 21.1875 18.6583 21.0625 18.825C20.9375 18.9917 20.7667 19.1167 20.55 19.2L15.9 20.775C15.8 20.8083 15.6958 20.8333 15.5875 20.85C15.4792 20.8667 15.3667 20.875 15.25 20.875C15.1333 20.875 15.0208 20.8667 14.9125 20.85C14.8042 20.8333 14.7 20.8083 14.6 20.775ZM14.25 18.55V6.85L10.25 5.45V17.15L14.25 18.55ZM16.25 18.55L19.25 17.55V5.7L16.25 6.85V18.55ZM5.25 18.3L8.25 17.15V5.45L5.25 6.45V18.3Z" fill="#3C0A72"/>
</svg>
