<svg width="21" height="22" viewBox="0 0 21 22" fill="none" xmlns="http://www.w3.org/2000/svg">
<path d="M0.375 9.025C0.375 7.35833 0.745833 5.82917 1.4875 4.4375C2.22917 3.04583 3.225 1.89167 4.475 0.974998L5.65 2.575C4.65 3.30833 3.85417 4.23333 3.2625 5.35C2.67083 6.46667 2.375 7.69167 2.375 9.025H0.375ZM18.375 9.025C18.375 7.69167 18.0792 6.46667 17.4875 5.35C16.8958 4.23333 16.1 3.30833 15.1 2.575L16.275 0.974998C17.525 1.89167 18.5208 3.04583 19.2625 4.4375C20.0042 5.82917 20.375 7.35833 20.375 9.025H18.375ZM2.375 18.025V16.025H4.375V9.025C4.375 7.64167 4.79167 6.4125 5.625 5.3375C6.45833 4.2625 7.54167 3.55833 8.875 3.225V2.525C8.875 2.10833 9.02083 1.75417 9.3125 1.4625C9.60417 1.17083 9.95833 1.025 10.375 1.025C10.7917 1.025 11.1458 1.17083 11.4375 1.4625C11.7292 1.75417 11.875 2.10833 11.875 2.525V3.225C13.2083 3.55833 14.2917 4.2625 15.125 5.3375C15.9583 6.4125 16.375 7.64167 16.375 9.025V16.025H18.375V18.025H2.375ZM10.375 21.025C9.825 21.025 9.35417 20.8292 8.9625 20.4375C8.57083 20.0458 8.375 19.575 8.375 19.025H12.375C12.375 19.575 12.1792 20.0458 11.7875 20.4375C11.3958 20.8292 10.925 21.025 10.375 21.025ZM6.375 16.025H14.375V9.025C14.375 7.925 13.9833 6.98333 13.2 6.2C12.4167 5.41667 11.475 5.025 10.375 5.025C9.275 5.025 8.33333 5.41667 7.55 6.2C6.76667 6.98333 6.375 7.925 6.375 9.025V16.025Z" fill="#76869A"/>
</svg>
